<svg xmlns="http://www.w3.org/2000/svg" viewBox="0 0 20 20" height="20" width="20"><title>interface-essential-navigation-right-circle-1</title><path d="M19.05 5.7125h-0.95625V3.80625h-0.95V2.85625h-0.95V1.90625h-1.90625V0.95h-1.90625V0h-4.7625v0.95H5.7125v0.95625H3.8125v0.95H2.85625v0.95H1.90625v1.90625H0.95v1.90625H0v4.7625h0.95v1.90625h0.95625v1.9h0.95v0.95625H3.8125v0.95h1.9v0.95625h1.90625V20h4.7625v-0.95h1.90625v-0.95625h1.90625v-0.95h0.95V16.1875h0.95v-1.9h0.95625v-1.90625H20v-4.7625h-0.95Zm-2.85625 3.8125h-0.95625v0.95h-0.95v0.95625h-0.95625v0.95h-0.95v0.95h-0.95v-1.9h-3.8125v0.95h-0.95v0.95h0.95v0.95625h0.95v0.95H5.7125v-0.95H4.7625v-0.95625H3.8125v-4.7625h0.95v-0.95h0.95v-0.95h5.71875V4.7625h0.95v0.95h0.95v0.95625h0.95625v0.95h0.95v0.95h0.95625Z" fill="#ffff10" stroke-width="1"></path></svg>