<svg xmlns="http://www.w3.org/2000/svg" viewBox="0 0 12 12" height="12" width="12"><title>coding-apps-websites-programming-browser</title><g><path d="m0.5700000000000001 3.4275 10.86 0 0 7.428749999999999 0.5700000000000001 0 0 -9.712499999999999 -0.5700000000000001 0 0 1.71375 -10.86 0 0 -1.71375 -0.5700000000000001 0 0 9.712499999999999 0.5700000000000001 0 0 -7.428749999999999z" fill="#000000" stroke-width="1"></path><path d="M0.5700000000000001 10.85625h10.86v0.57375H0.5700000000000001Z" fill="#000000" stroke-width="1"></path><path d="M1.71375 4.57125v5.1450000000000005h8.5725V4.57125Zm3.4275 2.8575h-0.5700000000000001v0.5700000000000001h-0.5700000000000001v0.57375H3.4275v-0.57375h0.57375v-0.5700000000000001h0.5700000000000001v-0.5700000000000001h-0.5700000000000001v-0.57375H3.4275v-0.5700000000000001h0.57375v0.5700000000000001h0.5700000000000001v0.57375h0.5700000000000001Zm3.4312500000000004 0h-2.2874999999999996v-0.5700000000000001h2.2874999999999996Z" fill="#000000" stroke-width="1"></path><path d="M3.4275 1.71375h0.57375V2.2874999999999996H3.4275Z" fill="#000000" stroke-width="1"></path><path d="M2.2874999999999996 1.71375h0.5700000000000001V2.2874999999999996H2.2874999999999996Z" fill="#000000" stroke-width="1"></path><path d="M1.1437499999999998 1.71375h0.5700000000000001V2.2874999999999996H1.1437499999999998Z" fill="#000000" stroke-width="1"></path><path d="M0.5700000000000001 0.5700000000000001h10.86v0.57375H0.5700000000000001Z" fill="#000000" stroke-width="1"></path></g></svg>