<svg xmlns="http://www.w3.org/2000/svg" viewBox="0 0 12 12" height="12" width="12"><title>interface-essential-pacman-loading</title><g><g><path d="M6.285 7.428749999999999h0.5700000000000001v0.5700000000000001h1.1437499999999998v0.57375h0.5700000000000001v0.5700000000000001h-0.5700000000000001v0.5700000000000001h-1.1437499999999998v0.57375h-0.5700000000000001v0.5700000000000001h0.5700000000000001v0.57375h1.1437499999999998V12h1.71375v-0.5700000000000001h1.1437499999999998v-0.57375h0.5700000000000001V9.712499999999999H12v-1.71375h-0.57375v-1.1400000000000001h-0.5700000000000001v-0.57375H9.712499999999999v-0.5700000000000001h-1.71375v0.5700000000000001h-1.1437499999999998v0.57375h-0.5700000000000001Zm2.8575 0h0.5700000000000001v0.5700000000000001h-0.5700000000000001Z" fill="#000000" stroke-width="1"></path><path d="M10.85625 2.28375h0.5700000000000001v0.57375h-0.5700000000000001Z" fill="#000000" stroke-width="1"></path><path d="M9.1425 4.00125h0.5700000000000001v0.5700000000000001h-0.5700000000000001Z" fill="#000000" stroke-width="1"></path><path d="M9.1425 2.28375h0.5700000000000001v0.57375h-0.5700000000000001Z" fill="#000000" stroke-width="1"></path><path d="M9.1425 0.5700000000000001h0.5700000000000001v0.57375h-0.5700000000000001Z" fill="#000000" stroke-width="1"></path><path d="M7.425000000000001 2.28375h0.57375v0.57375H7.425000000000001Z" fill="#000000" stroke-width="1"></path><path d="M5.71125 8.5725h0.57375v0.5700000000000001h-0.57375Z" fill="#000000" stroke-width="1"></path><path d="M5.71125 2.28375h0.57375v2.8575h-0.57375Z" fill="#000000" stroke-width="1"></path><path d="M5.14125 5.14125h0.5700000000000001v0.57375h-0.5700000000000001Z" fill="#000000" stroke-width="1"></path><path d="M5.14125 1.1437499999999998h0.5700000000000001v1.1400000000000001h-0.5700000000000001Z" fill="#000000" stroke-width="1"></path><path d="M4.57125 4.57125h0.5700000000000001v0.5700000000000001h-0.5700000000000001Z" fill="#000000" stroke-width="1"></path><path d="M4.57125 0.5700000000000001h0.5700000000000001v0.57375h-0.5700000000000001Z" fill="#000000" stroke-width="1"></path><path d="M3.9975 8.5725h0.57375v0.5700000000000001h-0.57375Z" fill="#000000" stroke-width="1"></path><path d="M3.9975 5.14125h0.57375v0.57375h-0.57375Z" fill="#000000" stroke-width="1"></path><path d="M3.9975 2.28375h0.57375v0.57375h-0.57375Z" fill="#000000" stroke-width="1"></path><path d="M3.4275 4.57125h0.5700000000000001v0.5700000000000001H3.4275Z" fill="#000000" stroke-width="1"></path><path d="M2.8537500000000002 5.14125h0.57375v0.57375H2.8537500000000002Z" fill="#000000" stroke-width="1"></path><path d="M2.8537500000000002 2.28375h0.57375v0.57375H2.8537500000000002Z" fill="#000000" stroke-width="1"></path><path d="M2.28375 10.286249999999999h0.5700000000000001v0.5700000000000001H2.28375Z" fill="#000000" stroke-width="1"></path><path d="M2.28375 8.5725h0.5700000000000001v0.5700000000000001H2.28375Z" fill="#000000" stroke-width="1"></path><path d="M2.28375 6.85875h0.5700000000000001v0.5700000000000001H2.28375Z" fill="#000000" stroke-width="1"></path><path d="M2.28375 4.57125h0.5700000000000001v0.5700000000000001H2.28375Z" fill="#000000" stroke-width="1"></path><path d="M1.71375 0h2.8575v0.5700000000000001H1.71375Z" fill="#000000" stroke-width="1"></path><path d="M1.71375 5.14125h0.5700000000000001v0.57375H1.71375Z" fill="#000000" stroke-width="1"></path><path d="M1.1400000000000001 4.57125h0.57375v0.5700000000000001H1.1400000000000001Z" fill="#000000" stroke-width="1"></path><path d="M1.1400000000000001 0.5700000000000001h0.57375v0.57375H1.1400000000000001Z" fill="#000000" stroke-width="1"></path><path d="M0.5700000000000001 8.5725h0.5700000000000001v0.5700000000000001H0.5700000000000001Z" fill="#000000" stroke-width="1"></path><path d="M0.5700000000000001 5.14125h0.5700000000000001v0.57375H0.5700000000000001Z" fill="#000000" stroke-width="1"></path><path d="M0.5700000000000001 1.1437499999999998h0.5700000000000001v1.1400000000000001H0.5700000000000001Z" fill="#000000" stroke-width="1"></path></g><path d="M0 2.28375h0.5700000000000001v2.8575H0Z" fill="#000000" stroke-width="1"></path></g></svg>