<svg xmlns="http://www.w3.org/2000/svg" viewBox="0 0 12 12" height="12" width="12"><title>shopping-shipping-weight-kg</title><g><path d="M10.571250000000001 6.285v-2.28375h-0.5700000000000001V2.8575h-3.4312500000000004V2.28375h0.57375V1.1437499999999998h-0.57375V0.5700000000000001h-2.28375v0.57375H3.71625v1.1400000000000001h0.5700000000000001v0.57375h-2.2874999999999996v0.5700000000000001H8.287500000000001v2.2874999999999996h0.5700000000000001v1.71375h0.5700000000000001v3.4275H0.85875v0.57375h9.1425v-0.57375h0.5700000000000001v-0.5700000000000001h0.5700000000000001V9.712499999999999h0.57375v-1.71375h-0.57375v-1.71375ZM6 2.28375h-1.1437499999999998V1.1437499999999998H6Z" fill="#000000" stroke-width="1"></path><path d="m6.57 7.428749999999999 0.57375 0 0 0.5700000000000001 0.5700000000000001 0 0 -1.1437499999999998 -1.1437499999999998 0 0 0.57375z" fill="#000000" stroke-width="1"></path><path d="M6 5.715h1.1437499999999998v0.5700000000000001H6Z" fill="#000000" stroke-width="1"></path><path d="M6 7.998749999999999h1.1437499999999998v0.57375H6Z" fill="#000000" stroke-width="1"></path><path d="M5.43 6.285H6v1.71375h-0.5700000000000001Z" fill="#000000" stroke-width="1"></path><path d="M4.28625 7.998749999999999h0.5700000000000001v0.57375h-0.5700000000000001Z" fill="#000000" stroke-width="1"></path><path d="M4.28625 5.715h0.5700000000000001v0.5700000000000001h-0.5700000000000001Z" fill="#000000" stroke-width="1"></path><path d="M3.71625 7.428749999999999h0.5700000000000001v0.5700000000000001H3.71625Z" fill="#000000" stroke-width="1"></path><path d="M3.71625 6.285h0.5700000000000001v0.5700000000000001H3.71625Z" fill="#000000" stroke-width="1"></path><path d="m3.1425 5.715 -0.5700000000000001 0 0 2.8575 0.5700000000000001 0 0 -1.1437499999999998 0.57375 0 0 -0.57375 -0.57375 0 0 -1.1400000000000001z" fill="#000000" stroke-width="1"></path><path d="M1.42875 3.4275h0.5700000000000001v2.2874999999999996H1.42875Z" fill="#000000" stroke-width="1"></path><path d="M0.85875 5.715h0.5700000000000001v1.71375H0.85875Z" fill="#000000" stroke-width="1"></path><path d="M0.28500000000000003 7.428749999999999h0.57375v3.4275H0.28500000000000003Z" fill="#000000" stroke-width="1"></path></g></svg>